<?xml version="1.0" encoding="utf-8"?><!-- Uploaded to: SVG Repo, www.svgrepo.com, Generator: SVG Repo Mixer Tools -->
<svg 
  width="24"
  height="24"
  viewBox="0 0 24 24"
  xmlns="http://www.w3.org/2000/svg"
  fill="orange"

>
  <path
    clip-rule="evenodd"
    d="M3 4C3 2.34315 4.34315 1 6 1H18C19.6569 1 21 2.34315 21 4V20C21 21.6569 19.6569 23 18 23H6C4.34315 23 3 21.6569 3 20V4ZM6 3H18C18.5523 3 19 3.44772 19 4V20C19 20.5523 18.5523 21 18 21H6C5.44772 21 5 20.5523 5 20V4C5 3.44772 5.44772 3 6 3Z"
  />
</svg>